# xmcd
#
# Track frame offsets:
# 150
# 13395
# 24037
# 36301
# 50123
# 68669
# 82701
# 96300
# 108877
# 122263
#
# Disc length: 1903 seconds
#
# Revision: 1
# Processed by: cddbd v1.5.1PL0 Copyright (c) Steve Scherf et al.
# Submitted via: CedeCatalogueitor 2.6.0.6 http://personales.ya.com/cdcatalogueitor
#
DISCID=72076d0a
DTITLE=Jack Costanzo and Gerry Woo - Latin Percussion With Soul
DYEAR=1900
DGENRE=
TTITLE0=Recuerdos
TTITLE1=Hey Boy (Hey Girl)
TTITLE2=Green Onions
TTITLE3=Words
TTITLE4=Mambo Jack
TTITLE5=Que Vengo Acabando
TTITLE6=Some Kind - A Wonderful
TTITLE7=Mantequilla
TTITLE8=Don't Squeeze The Peaches
TTITLE9=Jive Samba
EXTD=
EXTT0=
EXTT1=
EXTT2=
EXTT3=
EXTT4=
EXTT5=
EXTT6=
EXTT7=
EXTT8=
EXTT9=
PLAYORDER=
